<mxfile host="app.diagrams.net" agent="Mozilla/5.0 (Linux; Android 10; K) AppleWebKit/537.36 (KHTML, like Gecko) Chrome/131.0.0.0 Mobile Safari/537.36" version="26.0.4">
  <diagram name="Page-1" id="gR5YxNDQ8MxgFIj5UJz6">
    <mxGraphModel>
      <root>
        <mxCell id="0" />
        <mxCell id="1" parent="0" />
        <mxCell id="2" value="User" style="shape=umlLifeline;perimeter=lifelinePerimeter;whiteSpace=wrap;container=1;dropTarget=0;collapsible=0;recursiveResize=0;outlineConnect=0;portConstraint=eastwest;newEdgeStyle={&quot;edgeStyle&quot;:&quot;elbowEdgeStyle&quot;,&quot;elbow&quot;:&quot;vertical&quot;,&quot;curved&quot;:0,&quot;rounded&quot;:0};size=65;" vertex="1" parent="1">
          <mxGeometry width="150" height="412" as="geometry" />
        </mxCell>
        <mxCell id="3" value="Assistant" style="shape=umlLifeline;perimeter=lifelinePerimeter;whiteSpace=wrap;container=1;dropTarget=0;collapsible=0;recursiveResize=0;outlineConnect=0;portConstraint=eastwest;newEdgeStyle={&quot;edgeStyle&quot;:&quot;elbowEdgeStyle&quot;,&quot;elbow&quot;:&quot;vertical&quot;,&quot;curved&quot;:0,&quot;rounded&quot;:0};size=65;" vertex="1" parent="1">
          <mxGeometry x="352" width="150" height="412" as="geometry" />
        </mxCell>
        <mxCell id="4" value="Request for complex sequence diagram" style="verticalAlign=bottom;edgeStyle=elbowEdgeStyle;elbow=vertical;curved=0;rounded=0;endArrow=block;" edge="1" parent="1" source="2" target="3">
          <mxGeometry relative="1" as="geometry">
            <Array as="points">
              <mxPoint x="260" y="103" />
            </Array>
          </mxGeometry>
        </mxCell>
        <mxCell id="5" value="Analyze requirements and design diagram" style="curved=1;endArrow=block;" edge="1" parent="1" source="3" target="3">
          <mxGeometry relative="1" as="geometry">
            <Array as="points">
              <mxPoint x="478" y="151" />
              <mxPoint x="478" y="181" />
            </Array>
          </mxGeometry>
        </mxCell>
        <mxCell id="6" value="Implement detailed and complex sequence diagram" style="curved=1;endArrow=block;" edge="1" parent="1" source="3" target="3">
          <mxGeometry relative="1" as="geometry">
            <Array as="points">
              <mxPoint x="478" y="229" />
              <mxPoint x="478" y="259" />
            </Array>
          </mxGeometry>
        </mxCell>
        <mxCell id="7" value="Provide the generated diagram" style="verticalAlign=bottom;edgeStyle=elbowEdgeStyle;elbow=vertical;curved=0;rounded=0;dashed=1;dashPattern=2 3;endArrow=block;" edge="1" parent="1" source="3" target="2">
          <mxGeometry relative="1" as="geometry">
            <Array as="points">
              <mxPoint x="263" y="307" />
            </Array>
          </mxGeometry>
        </mxCell>
      </root>
    </mxGraphModel>
  </diagram>
</mxfile>
